<svg width="16" height="16" viewBox="0 0 16 16" fill="none" xmlns="http://www.w3.org/2000/svg">
<path d="M13 5C13.0001 4.6493 12.9081 4.30473 12.733 4.00084C12.558 3.69695 12.3061 3.44443 12.0027 3.26861C11.6992 3.09278 11.3549 2.99984 11.0042 2.9991C10.6535 2.99836 10.3088 3.08985 10.0046 3.26439C9.70043 3.43893 9.44749 3.69038 9.27116 3.99353C9.09484 4.29668 9.00132 4.64086 9 4.99155C8.99868 5.34225 9.08959 5.68713 9.26363 5.9916C9.43766 6.29607 9.68869 6.54942 9.99155 6.72625C9.91999 7.635 9.36405 7.8825 7.6478 8.23937C7.0928 8.35437 6.52499 8.47219 6.00061 8.67469V4.73094C6.3819 4.5108 6.67989 4.17101 6.84837 3.76425C7.01685 3.3575 7.04641 2.90651 6.93246 2.48125C6.81851 2.05598 6.56742 1.6802 6.21813 1.41218C5.86885 1.14416 5.44088 0.998886 5.00061 0.998886C4.56034 0.998886 4.13238 1.14416 3.78309 1.41218C3.4338 1.6802 3.18271 2.05598 3.06876 2.48125C2.95481 2.90651 2.98437 3.3575 3.15285 3.76425C3.32134 4.17101 3.61933 4.5108 4.00061 4.73094V11.2691C3.61991 11.4889 3.32224 11.828 3.15365 12.2341C2.98506 12.6401 2.95494 13.0903 3.06794 13.5151C3.18095 13.94 3.43078 14.3158 3.77881 14.5844C4.12684 14.853 4.55367 14.9994 4.99328 15.001C5.4329 15.0027 5.86081 14.8594 6.21083 14.5934C6.56085 14.3274 6.81348 13.9535 6.92965 13.5295C7.04581 13.1055 7.01905 12.6551 6.85349 12.2478C6.68792 11.8406 6.39279 11.4992 6.01374 11.2766C6.08842 10.7141 6.51374 10.5162 8.05311 10.1978C8.9103 10.0206 9.79624 9.83719 10.5462 9.35562C11.4525 8.775 11.9378 7.89375 11.995 6.73406C12.3003 6.55899 12.5539 6.30647 12.7304 6.00201C12.9068 5.69754 12.9998 5.3519 13 5ZM4.99999 2C5.19777 2 5.39111 2.05865 5.55556 2.16853C5.72001 2.27841 5.84818 2.43459 5.92387 2.61732C5.99955 2.80004 6.01936 3.00111 5.98077 3.19509C5.94219 3.38907 5.84695 3.56725 5.70709 3.70711C5.56724 3.84696 5.38906 3.9422 5.19508 3.98078C5.0011 4.01937 4.80003 3.99957 4.6173 3.92388C4.43458 3.84819 4.2784 3.72002 4.16852 3.55557C4.05864 3.39112 3.99999 3.19778 3.99999 3C3.99999 2.73478 4.10534 2.48043 4.29288 2.29289C4.48042 2.10536 4.73477 2 4.99999 2ZM4.99999 14C4.8022 14 4.60887 13.9413 4.44442 13.8315C4.27997 13.7216 4.15179 13.5654 4.07611 13.3827C4.00042 13.2 3.98062 12.9989 4.0192 12.8049C4.05779 12.6109 4.15303 12.4327 4.29288 12.2929C4.43273 12.153 4.61091 12.0578 4.8049 12.0192C4.99888 11.9806 5.19994 12.0004 5.38267 12.0761C5.5654 12.1518 5.72157 12.28 5.83146 12.4444C5.94134 12.6089 5.99999 12.8022 5.99999 13C5.99999 13.2652 5.89463 13.5196 5.70709 13.7071C5.51956 13.8946 5.2652 14 4.99999 14ZM11 6C10.8022 6 10.6089 5.94135 10.4444 5.83147C10.28 5.72159 10.1518 5.56541 10.0761 5.38268C10.0004 5.19996 9.98062 4.99889 10.0192 4.80491C10.0578 4.61093 10.153 4.43275 10.2929 4.29289C10.4327 4.15304 10.6109 4.0578 10.8049 4.01921C10.9989 3.98063 11.1999 4.00043 11.3827 4.07612C11.5654 4.15181 11.7216 4.27998 11.8315 4.44443C11.9413 4.60888 12 4.80222 12 5C12 5.26522 11.8946 5.51957 11.7071 5.70711C11.5196 5.89464 11.2652 6 11 6Z" fill="black"/>
</svg>
